<svg width="400" height="84" viewBox="0 0 400 84" fill="none" xmlns="http://www.w3.org/2000/svg">
<path d="M3.22 69V13H14.84C19.04 13 22.0733 13.9333 23.94 15.8C25.8533 17.62 26.8567 20.63 26.95 24.83C27.0433 28.6567 27.09 32.32 27.09 35.82C27.1367 39.2733 27.1367 42.7267 27.09 46.18C27.09 49.6333 27.0433 53.2733 26.95 57.1C26.8567 61.3467 25.8533 64.4033 23.94 66.27C22.0733 68.09 19.0167 69 14.77 69H3.22ZM10.85 62.28H14.77C17.8033 62.28 19.3433 60.8567 19.39 58.01C19.6233 46.67 19.6233 35.33 19.39 23.99C19.3433 21.1433 17.8267 19.72 14.84 19.72H10.85V62.28ZM33.5716 69V27H41.2016V31.62H42.5316C42.8582 29.8467 43.4882 28.61 44.4216 27.91C45.3549 27.1633 46.5682 26.79 48.0616 26.79C48.5282 26.79 48.9949 26.8133 49.4616 26.86C49.9749 26.86 50.3716 26.8833 50.6516 26.93V32.81H48.1316C45.7982 32.81 44.1182 33.2067 43.0916 34C42.1116 34.7467 41.4816 35.8667 41.2016 37.36V69H33.5716ZM63.4364 69.56C60.8697 69.56 58.8631 68.79 57.4164 67.25C55.9697 65.71 55.2464 63.1433 55.2464 59.55V27H62.8064V60.11C62.8064 62.6767 63.9497 63.96 66.2364 63.96C67.3097 63.96 68.3597 63.6333 69.3864 62.98C70.4131 62.3267 71.1597 61.44 71.6264 60.32V27H79.1864V69H71.6264V64.87H70.5064C68.8264 67.9967 66.4697 69.56 63.4364 69.56ZM85.593 69V27H93.223V31.13H94.553C95.393 29.59 96.303 28.4233 97.283 27.63C98.263 26.8367 99.7097 26.44 101.623 26.44C103.536 26.44 105.1 26.86 106.313 27.7C107.526 28.4933 108.39 29.8 108.903 31.62H110.233C111.073 30.08 112.053 28.8433 113.173 27.91C114.34 26.93 115.88 26.44 117.793 26.44C120.36 26.44 122.296 27.21 123.603 28.75C124.956 30.29 125.656 32.8567 125.703 36.45L125.773 69H118.213L118.143 35.89C118.05 33.3233 116.906 32.04 114.713 32.04C113.64 32.04 112.636 32.39 111.703 33.09C110.77 33.7433 110.046 34.6533 109.533 35.82L109.603 69H102.043L101.973 35.89C101.973 33.3233 100.83 32.04 98.543 32.04C97.423 32.04 96.3497 32.3433 95.323 32.95C94.343 33.5567 93.643 34.4667 93.223 35.68V69H85.593ZM159.433 69.56C155.233 69.56 152.247 68.6733 150.473 66.9C148.7 65.08 147.72 62.0933 147.533 57.94C147.487 56.3067 147.463 54.72 147.463 53.18C147.51 51.64 147.603 50.03 147.743 48.35H154.883C154.79 50.2633 154.72 52.1533 154.673 54.02C154.673 55.8867 154.743 57.6367 154.883 59.27C154.977 60.67 155.373 61.6967 156.073 62.35C156.82 63.0033 157.94 63.33 159.433 63.33C160.88 63.33 161.93 63.0033 162.583 62.35C163.283 61.6967 163.68 60.67 163.773 59.27C163.913 57.6833 163.96 56.26 163.913 55C163.913 53.6933 163.867 52.1767 163.773 50.45C163.68 49.0967 163.4 47.93 162.933 46.95C162.467 45.97 161.627 45.3167 160.413 44.99L155.723 43.8C152.55 43.0067 150.38 41.63 149.213 39.67C148.047 37.71 147.417 35.05 147.323 31.69C147.323 30.43 147.323 29.1467 147.323 27.84C147.323 26.5333 147.347 25.25 147.393 23.99C147.533 19.8367 148.49 16.8733 150.263 15.1C152.083 13.3267 155.14 12.44 159.433 12.44C163.447 12.44 166.363 13.3267 168.183 15.1C170.003 16.8733 170.983 19.8367 171.123 23.99C171.17 25.1567 171.17 26.58 171.123 28.26C171.123 29.8933 171.1 31.55 171.053 33.23H163.773C163.82 31.4567 163.843 29.7067 163.843 27.98C163.89 26.2067 163.867 24.4333 163.773 22.66C163.68 20 162.21 18.67 159.363 18.67C157.917 18.67 156.843 18.9967 156.143 19.65C155.443 20.3033 155.047 21.3067 154.953 22.66C154.813 24.1533 154.743 25.67 154.743 27.21C154.79 28.7033 154.86 30.1967 154.953 31.69C155.047 33.23 155.327 34.4433 155.793 35.33C156.307 36.2167 157.217 36.8233 158.523 37.15L162.723 38.13C166.037 38.9233 168.277 40.3467 169.443 42.4C170.61 44.4067 171.263 47.09 171.403 50.45C171.45 51.9433 171.45 53.2267 171.403 54.3C171.403 55.3733 171.38 56.5867 171.333 57.94C171.193 62.0933 170.213 65.08 168.393 66.9C166.573 68.6733 163.587 69.56 159.433 69.56ZM192.46 53.67H199.81C199.856 54.3233 199.88 55.1867 199.88 56.26C199.926 57.3333 199.926 58.29 199.88 59.13C199.74 62.8633 198.806 65.5467 197.08 67.18C195.4 68.7667 192.623 69.56 188.75 69.56C184.783 69.56 181.89 68.7667 180.07 67.18C178.296 65.5467 177.316 62.8633 177.13 59.13C177.083 57.7767 177.036 56.1433 176.99 54.23C176.99 52.27 176.99 50.24 176.99 48.14C176.99 46.04 176.99 44.01 176.99 42.05C177.036 40.09 177.083 38.41 177.13 37.01C177.363 33.23 178.366 30.5233 180.14 28.89C181.96 27.2567 184.806 26.44 188.68 26.44C192.506 26.44 195.283 27.2333 197.01 28.82C198.783 30.4067 199.74 33.0433 199.88 36.73C199.926 37.3367 199.95 38.3167 199.95 39.67C199.996 41.0233 199.996 42.5633 199.95 44.29C199.95 45.97 199.903 47.65 199.81 49.33H184.62C184.62 51.0567 184.62 52.7833 184.62 54.51C184.666 56.2367 184.713 58.0333 184.76 59.9C184.76 61.3467 185.063 62.3733 185.67 62.98C186.323 63.54 187.35 63.82 188.75 63.82C190.01 63.82 190.92 63.54 191.48 62.98C192.086 62.3733 192.413 61.3467 192.46 59.9C192.553 58.4067 192.553 56.33 192.46 53.67ZM188.68 32.18C187.28 32.18 186.276 32.4833 185.67 33.09C185.063 33.65 184.76 34.5833 184.76 35.89C184.713 37.3833 184.666 38.7833 184.62 40.09C184.62 41.35 184.62 42.6333 184.62 43.94H192.53C192.576 42.0733 192.576 40.4167 192.53 38.97C192.53 37.5233 192.506 36.4967 192.46 35.89C192.413 34.5833 192.086 33.65 191.48 33.09C190.92 32.4833 189.986 32.18 188.68 32.18ZM221.81 83V64.87H220.76C219.827 66.55 218.847 67.7633 217.82 68.51C216.794 69.21 215.534 69.56 214.04 69.56C211.474 69.56 209.444 68.79 207.95 67.25C206.457 65.71 205.617 63.1433 205.43 59.55C205.384 58.1967 205.337 56.54 205.29 54.58C205.29 52.5733 205.29 50.4733 205.29 48.28C205.29 46.0867 205.29 43.9633 205.29 41.91C205.337 39.81 205.384 37.99 205.43 36.45C205.617 32.8567 206.387 30.29 207.74 28.75C209.094 27.21 211.03 26.44 213.55 26.44C215.51 26.44 216.957 26.8367 217.89 27.63C218.87 28.4233 219.78 29.59 220.62 31.13H221.81V27H229.37V83H221.81ZM216.91 63.96C218.17 63.96 219.174 63.68 219.92 63.12C220.714 62.56 221.344 61.6267 221.81 60.32V35.68C221.39 34.4667 220.667 33.5567 219.64 32.95C218.614 32.3433 217.54 32.04 216.42 32.04C215.254 32.04 214.414 32.3433 213.9 32.95C213.387 33.5567 213.107 34.5367 213.06 35.89C212.874 39.9033 212.78 44.08 212.78 48.42C212.78 52.76 212.874 56.6567 213.06 60.11C213.107 61.4633 213.457 62.4433 214.11 63.05C214.81 63.6567 215.744 63.96 216.91 63.96ZM244.247 69.56C241.68 69.56 239.674 68.79 238.227 67.25C236.78 65.71 236.057 63.1433 236.057 59.55V27H243.617V60.11C243.617 62.6767 244.76 63.96 247.047 63.96C248.12 63.96 249.17 63.6333 250.197 62.98C251.224 62.3267 251.97 61.44 252.437 60.32V27H259.997V69H252.437V64.87H251.317C249.637 67.9967 247.28 69.56 244.247 69.56ZM281.395 53.67H288.745C288.792 54.3233 288.815 55.1867 288.815 56.26C288.862 57.3333 288.862 58.29 288.815 59.13C288.675 62.8633 287.742 65.5467 286.015 67.18C284.335 68.7667 281.558 69.56 277.685 69.56C273.718 69.56 270.825 68.7667 269.005 67.18C267.232 65.5467 266.252 62.8633 266.065 59.13C266.018 57.7767 265.972 56.1433 265.925 54.23C265.925 52.27 265.925 50.24 265.925 48.14C265.925 46.04 265.925 44.01 265.925 42.05C265.972 40.09 266.018 38.41 266.065 37.01C266.298 33.23 267.302 30.5233 269.075 28.89C270.895 27.2567 273.742 26.44 277.615 26.44C281.442 26.44 284.218 27.2333 285.945 28.82C287.718 30.4067 288.675 33.0433 288.815 36.73C288.862 37.3367 288.885 38.3167 288.885 39.67C288.932 41.0233 288.932 42.5633 288.885 44.29C288.885 45.97 288.838 47.65 288.745 49.33H273.555C273.555 51.0567 273.555 52.7833 273.555 54.51C273.602 56.2367 273.648 58.0333 273.695 59.9C273.695 61.3467 273.998 62.3733 274.605 62.98C275.258 63.54 276.285 63.82 277.685 63.82C278.945 63.82 279.855 63.54 280.415 62.98C281.022 62.3733 281.348 61.3467 281.395 59.9C281.488 58.4067 281.488 56.33 281.395 53.67ZM277.615 32.18C276.215 32.18 275.212 32.4833 274.605 33.09C273.998 33.65 273.695 34.5833 273.695 35.89C273.648 37.3833 273.602 38.7833 273.555 40.09C273.555 41.35 273.555 42.6333 273.555 43.94H281.465C281.512 42.0733 281.512 40.4167 281.465 38.97C281.465 37.5233 281.442 36.4967 281.395 35.89C281.348 34.5833 281.022 33.65 280.415 33.09C279.855 32.4833 278.922 32.18 277.615 32.18ZM294.226 69V27H301.856V31.13H303.256C304.049 29.6367 304.936 28.4933 305.916 27.7C306.943 26.86 308.389 26.44 310.256 26.44C312.823 26.44 314.783 27.21 316.136 28.75C317.536 30.29 318.236 32.8567 318.236 36.45V69H310.676V35.89C310.676 33.3233 309.509 32.04 307.176 32.04C306.103 32.04 305.053 32.3667 304.026 33.02C302.999 33.6733 302.276 34.56 301.856 35.68V69H294.226ZM324.512 59.13C324.466 57.7767 324.419 56.1433 324.372 54.23C324.372 52.27 324.372 50.24 324.372 48.14C324.372 46.04 324.372 44.01 324.372 42.05C324.419 40.09 324.466 38.41 324.512 37.01C324.746 33.23 325.749 30.5233 327.522 28.89C329.296 27.2567 332.119 26.44 335.992 26.44C339.912 26.44 342.736 27.2333 344.462 28.82C346.189 30.4067 347.146 33.0433 347.332 36.73C347.332 37.57 347.309 38.55 347.262 39.67C347.262 40.7433 347.262 41.6067 347.262 42.26H339.842C339.889 41.3267 339.912 40.2067 339.912 38.9C339.912 37.5933 339.889 36.59 339.842 35.89C339.796 34.5367 339.469 33.58 338.862 33.02C338.302 32.46 337.346 32.18 335.992 32.18C334.639 32.18 333.659 32.46 333.052 33.02C332.446 33.58 332.142 34.5367 332.142 35.89C332.002 40.0433 331.932 44.0567 331.932 47.93C331.932 51.7567 332.002 55.7467 332.142 59.9C332.142 61.3467 332.446 62.3733 333.052 62.98C333.706 63.54 334.732 63.82 336.132 63.82C337.439 63.82 338.372 63.54 338.932 62.98C339.492 62.3733 339.796 61.3467 339.842 59.9C339.889 59.1533 339.912 58.2433 339.912 57.17C339.912 56.0967 339.889 54.93 339.842 53.67H347.262C347.262 54.3233 347.262 55.1867 347.262 56.26C347.309 57.3333 347.332 58.29 347.332 59.13C347.146 62.8633 346.189 65.5467 344.462 67.18C342.736 68.7667 339.959 69.56 336.132 69.56C332.166 69.56 329.272 68.7667 327.452 67.18C325.679 65.5467 324.699 62.8633 324.512 59.13ZM367.87 53.67H375.22C375.266 54.3233 375.29 55.1867 375.29 56.26C375.336 57.3333 375.336 58.29 375.29 59.13C375.15 62.8633 374.216 65.5467 372.49 67.18C370.81 68.7667 368.033 69.56 364.16 69.56C360.193 69.56 357.3 68.7667 355.48 67.18C353.706 65.5467 352.726 62.8633 352.54 59.13C352.493 57.7767 352.446 56.1433 352.4 54.23C352.4 52.27 352.4 50.24 352.4 48.14C352.4 46.04 352.4 44.01 352.4 42.05C352.446 40.09 352.493 38.41 352.54 37.01C352.773 33.23 353.776 30.5233 355.55 28.89C357.37 27.2567 360.216 26.44 364.09 26.44C367.916 26.44 370.693 27.2333 372.42 28.82C374.193 30.4067 375.15 33.0433 375.29 36.73C375.336 37.3367 375.36 38.3167 375.36 39.67C375.406 41.0233 375.406 42.5633 375.36 44.29C375.36 45.97 375.313 47.65 375.22 49.33H360.03C360.03 51.0567 360.03 52.7833 360.03 54.51C360.076 56.2367 360.123 58.0333 360.17 59.9C360.17 61.3467 360.473 62.3733 361.08 62.98C361.733 63.54 362.76 63.82 364.16 63.82C365.42 63.82 366.33 63.54 366.89 62.98C367.496 62.3733 367.823 61.3467 367.87 59.9C367.963 58.4067 367.963 56.33 367.87 53.67ZM364.09 32.18C362.69 32.18 361.686 32.4833 361.08 33.09C360.473 33.65 360.17 34.5833 360.17 35.89C360.123 37.3833 360.076 38.7833 360.03 40.09C360.03 41.35 360.03 42.6333 360.03 43.94H367.94C367.986 42.0733 367.986 40.4167 367.94 38.97C367.94 37.5233 367.916 36.4967 367.87 35.89C367.823 34.5833 367.496 33.65 366.89 33.09C366.33 32.4833 365.396 32.18 364.09 32.18ZM380.7 69V27H388.33V31.62H389.66C389.987 29.8467 390.617 28.61 391.55 27.91C392.484 27.1633 393.697 26.79 395.19 26.79C395.657 26.79 396.124 26.8133 396.59 26.86C397.104 26.86 397.5 26.8833 397.78 26.93V32.81H395.26C392.927 32.81 391.247 33.2067 390.22 34C389.24 34.7467 388.61 35.8667 388.33 37.36V69H380.7Z" fill="black"/>
<rect x="177" y="13" width="32" height="10" fill="#7739D4"/>
<rect x="225" y="13" width="31" height="10" fill="#7739D4"/>
<rect x="366" y="13" width="32" height="10" fill="#7739D4"/>
<rect x="272" y="13" width="32" height="10" fill="#7739D4"/>
<rect x="319" y="13" width="32" height="10" fill="#7739D4"/>
<rect x="236" y="73" width="38" height="10" fill="#7739D4"/>
<rect x="293" y="73" width="38" height="10" fill="#7739D4"/>
<rect x="350" y="73" width="38" height="10" fill="#7739D4"/>
<rect x="34" y="13" width="27" height="10" fill="#7739D4"/>
<rect x="74" y="13" width="26" height="10" fill="#7739D4"/>
<rect x="114" y="13" width="27" height="10" fill="#7739D4"/>
<rect x="3" y="73" width="39" height="10" fill="#7739D4"/>
<rect x="61" y="73" width="40" height="10" fill="#7739D4"/>
<rect x="121" y="73" width="38" height="10" fill="#7739D4"/>
<rect x="178" y="73" width="38" height="10" fill="#7739D4"/>
</svg>
